<svg xmlns="http://www.w3.org/2000/svg" viewBox="0 0 500 500"><g id="freepik--background-complete--inject-197"><path d="M404.79,385.49c7.63-.16,19-.43,26.48-.45l-.44.45-.06-11.19.5.5c-7.81,0-18.78-.09-26.48-.23l.28-.27c-.08,3.19-.19,7.93-.28,11.19Zm0,0c-.05-3.44-.25-8.05-.27-11.46,7.77-.16,18.87-.2,26.75-.23h.5v.5l0,11.19v.45h-.45c-7.55,0-18.83-.29-26.48-.44Z" style="fill:#ebebeb"></path><path d="M419.56,399.6c7.64-.16,19-.43,26.48-.45l-.44.45-.05-11.19.49.5c-7.81,0-18.78-.09-26.48-.23l.28-.27c-.08,3.19-.19,7.93-.28,11.19Zm0,0c0-3.44-.25-8.05-.27-11.46,7.77-.16,18.87-.2,26.75-.23h.51v.5l-.05,11.19v.45H446c-7.55,0-18.83-.29-26.48-.44Z" style="fill:#ebebeb"></path><path d="M390,399.6c7.63-.16,19-.43,26.48-.45l-.44.45L416,388.41l.5.5c-7.81,0-18.78-.09-26.48-.23l.27-.27c-.07,3.19-.18,7.93-.27,11.19Zm0,0c0-3.44-.25-8.05-.27-11.46,7.77-.16,18.87-.2,26.75-.23h.5v.5L417,399.6v.45h-.44c-7.55,0-18.83-.29-26.48-.44Z" style="fill:#ebebeb"></path><path d="M68.73,399.6c7.63-.16,19-.43,26.48-.45l-.45.45-.05-11.19.5.5c-7.81,0-18.78-.09-26.48-.23l.27-.27c-.07,3.19-.19,7.93-.27,11.19Zm0,0c0-3.44-.26-8.05-.28-11.46,7.77-.16,18.87-.2,26.76-.23h.5v.5l-.06,11.19v.45h-.44c-7.56,0-18.83-.29-26.48-.44Z" style="fill:#ebebeb"></path><path d="M68.73,77.8c7.63-.16,19-.43,26.48-.44l-.45.44-.05-11.19.5.5c-7.81,0-18.78-.08-26.48-.22l.27-.28c-.07,3.2-.19,7.94-.27,11.19Zm0,0c0-3.44-.26-8-.28-11.46,7.77-.15,18.87-.19,26.76-.23h.5v.5L95.65,77.8v.45h-.44c-7.56,0-18.83-.3-26.48-.45Z" style="fill:#ebebeb"></path><path d="M54,91.91c7.63-.16,18.95-.43,26.48-.44l-.45.44,0-11.19.5.5c-7.82,0-18.79-.08-26.48-.22l.27-.28c-.07,3.2-.19,7.94-.27,11.19Zm0,0c-.05-3.44-.26-8-.28-11.46,7.77-.15,18.87-.19,26.76-.23h.5v.5l-.06,11.19v.45h-.44c-7.56,0-18.84-.3-26.48-.45Z" style="fill:#ebebeb"></path><path d="M419.56,77.82c7.64-.17,19-.43,26.48-.45l-.44.45-.05-11.19.49.5c-7.81,0-18.78-.09-26.48-.23l.28-.27c-.08,3.19-.19,7.93-.28,11.19Zm0,0c0-3.44-.25-8.06-.27-11.46,7.77-.16,18.87-.2,26.75-.23h.51v.51l-.05,11.19v.44H446c-7.55,0-18.83-.3-26.48-.44Z" style="fill:#ebebeb"></path><path d="M296.21,270.33c-7.63.16-18.95.43-26.48.44l.45-.44.05,11.19-.5-.5c7.81,0,18.79.08,26.48.22l-.27.28c.07-3.2.19-7.94.27-11.19Zm0,0c.05,3.44.26,8.05.28,11.46-7.77.15-18.87.19-26.76.23h-.5v-.5l.06-11.19v-.45h.44c7.56,0,18.83.3,26.48.45Z" style="fill:#ebebeb"></path><path d="M281.44,256.22c-7.63.16-18.95.43-26.48.44l.45-.44.05,11.19-.5-.5c7.81,0,18.78.08,26.48.22l-.27.28c.07-3.19.18-7.94.27-11.19Zm0,0c.05,3.44.26,8,.28,11.46-7.78.15-18.87.2-26.76.23h-.5v-.5l.06-11.19v-.45H255c7.55,0,18.83.3,26.48.45Z" style="fill:#ebebeb"></path><path d="M95.32,74.08c-51.81,0-51.9,73.69,0,73.69S147.22,74.08,95.32,74.08Z" style="fill:#ebebeb"></path><path d="M126.83,117.83c-2.76,12.68-13.27,23.67-31.51,23.67-43.07,0-43-61.15,0-61.15h.84C55.69,81.1,55.89,139,97,139,113.7,139,123.69,129.33,126.83,117.83Z" style="fill:#dbdbdb"></path><path d="M95.63,88.41A1.3,1.3,0,0,1,97,89.64v2a19.27,19.27,0,0,1,10,3.59c.51.36.79.67.79,1.18a1.39,1.39,0,0,1-1.46,1.28,1.46,1.46,0,0,1-1-.35,16.81,16.81,0,0,0-8.41-3.34v14.36C105.38,110.06,109,113,109,118c0,5.43-5,9.28-12,9.49v4a1.35,1.35,0,0,1-2.69,0v-4.06a22.06,22.06,0,0,1-12.61-5,1.33,1.33,0,0,1-.62-1.08,1.46,1.46,0,0,1,2.41-.92,18.86,18.86,0,0,0,10.94,4.67V110.52C86,108.83,82.51,106,82.51,100.87s4.93-9.13,11.77-9.28v-2A1.31,1.31,0,0,1,95.63,88.41ZM94.4,107.9v-14c-5.44.1-9,3.08-9,6.77C85.37,104.16,87.16,106.31,94.4,107.9ZM96.86,111v14.16c5.61-.11,9.25-3.08,9.25-7C106.11,114.67,104.15,112.52,96.86,111Z" style="fill:#dbdbdb"></path><path d="M399,303.38c-46.66,8.38-34.33,77.49,12.4,69.11S445.71,295,399,303.38Z" style="fill:#dbdbdb"></path><path d="M403.36,302.6c-44.46,8-32.14,77.09,12.4,69.1S447.9,294.61,403.36,302.6Z" style="fill:#ebebeb"></path><path d="M437.76,338.78c-.24,12.31-7.41,24.24-23.06,27.05-37,6.63-47.19-50.74-10.29-57.36l.73-.11c-34.61,6.92-24.69,61.21,10.55,54.89C430.06,360.67,437,350,437.76,338.78Z" style="fill:#dbdbdb"></path><path d="M412.24,316a1.18,1.18,0,0,1,1,1.3L413,319.2a15.94,15.94,0,0,1,8.24,4.41,1.38,1.38,0,0,1,.54,1.2,1.25,1.25,0,0,1-1.4,1.07,1.22,1.22,0,0,1-.83-.45,14,14,0,0,0-6.91-4L411.08,335c7.19,2.42,10,5.56,9.41,10.31-.6,5.15-5.35,8.28-11.44,7.76l-.44,3.79a1.19,1.19,0,0,1-1.31,1,1.18,1.18,0,0,1-1-1.3l.45-3.83a18.4,18.4,0,0,1-10.37-6,1.26,1.26,0,0,1-.41-1.09,1.27,1.27,0,0,1,1.35-1.07,1.22,1.22,0,0,1,.84.45,15.83,15.83,0,0,0,8.94,5.53l1.63-13.84c-7.09-2.46-9.79-5.48-9.22-10.33s5.29-8.14,11.23-7.59l.21-1.85A1.19,1.19,0,0,1,412.24,316ZM409,334.28,410.56,321c-4.72-.46-8.16,2-8.57,5.48C401.6,329.81,402.91,332,409,334.28Zm1.79,3.21-1.58,13.4c4.87.47,8.35-2,8.79-5.66C418.39,341.88,416.93,339.64,410.79,337.49Z" style="fill:#dbdbdb"></path><path d="M443.06,172.39c-29.13,9-58.26-30.27-87.39-21.26A236,236,0,0,1,371,125.5c23.71,4,47.42,28.81,71.13,22.29Z" style="fill:#ebebeb"></path><path d="M414,156.78c-.93,4.32-7,5.32-13.58,1.83s-10.46-9.09-8.69-12.87,7.85-4.39,13.57-1.47S414.92,152.51,414,156.78Z" style="fill:#dbdbdb"></path><path d="M384.59,141.89c-.48.86-2.21,1-3.88.39s-2.58-1.75-2.06-2.65,2.26-1.17,3.87-.52S385.06,141,384.59,141.89Z" style="fill:#dbdbdb"></path><path d="M427.41,160.46c-.1,1.06-1.53,1.68-3.19,1.25s-2.9-1.68-2.76-2.7,1.58-1.45,3.19-1.06S427.5,159.41,427.41,160.46Z" style="fill:#dbdbdb"></path><path d="M373.15,125.93a245.39,245.39,0,0,0-14.84,24.51c-.88.19-1.76.41-2.65.69A236,236,0,0,1,371,125.5C371.71,125.63,372.43,125.77,373.15,125.93Z" style="fill:#dbdbdb"></path><path d="M443.06,172.39c-.88.27-1.76.5-2.65.69q-.21-12.39-.43-24.79c.72-.14,1.44-.31,2.15-.5Z" style="fill:#dbdbdb"></path><path d="M443,170.84l.06,1.55c-29.13,9-58.26-30.27-87.4-21.26l1-1.85C385.42,141.42,414.21,179.68,443,170.84Z" style="fill:#dbdbdb"></path><path d="M442.13,147.79l.06,1.54c-24.05,6.67-48.1-18.92-72.16-22.42l1-1.41C394.71,129.52,418.42,154.31,442.13,147.79Z" style="fill:#dbdbdb"></path><path d="M365,148.21a32.14,32.14,0,0,0-5.78.48c.68-1.27,1.37-2.52,2.06-3.74C364.42,144.64,366.09,146.36,365,148.21Z" style="fill:#dbdbdb"></path><path d="M440.33,168.07l.06,3.45a30,30,0,0,1-5.79.65C434.65,170.25,437.21,168.73,440.33,168.07Z" style="fill:#dbdbdb"></path><path d="M435.17,150.41a30.82,30.82,0,0,0,4.84-.56l.06,3.45C437.31,153.85,435.12,152.32,435.17,150.41Z" style="fill:#dbdbdb"></path><path d="M370.15,130.38q1-1.57,2.07-3.09c1.61.32,3.21.73,4.82,1.22C376,130.08,372.91,130.77,370.15,130.38Z" style="fill:#dbdbdb"></path><path d="M404.83,146.09c.27.14.46.39.41.55s-.11.34-.17.5a14.16,14.16,0,0,1,3.55,2.77c.17.19.26.32.22.44s-.35.2-.65.05a1,1,0,0,1-.37-.28,12.47,12.47,0,0,0-3-2.43l-1.16,3.48c3.26,2.13,4.49,3.53,4.14,4.79s-2.71,1.31-5.63-.15c-.11.32-.22.65-.32,1-.06.16-.36.16-.67,0s-.52-.43-.46-.59c.11-.32.22-.64.34-1a17.21,17.21,0,0,1-4.76-3.87c-.13-.16-.2-.28-.15-.39s.39-.16.69,0a.91.91,0,0,1,.38.3,14.33,14.33,0,0,0,4.07,3.43l1.22-3.51c-3.2-2.14-4.32-3.52-3.84-4.72s2.74-1.16,5.36.14c.06-.16.11-.32.17-.47S404.55,146,404.83,146.09Zm-2.09,4.46,1.17-3.37c-2.1-1-3.75-1.06-4.08-.19S400,148.69,402.74,150.55Zm.73,1.26-1.14,3.42c2.32,1.17,4,1.18,4.32.21S406.27,153.66,403.47,151.81Z" style="fill:#ebebeb"></path><path d="M396.71,183.38c-23.14-10.41-46.29,18.8-69.44,8.39,1.8-5.48,3.6-11.21,5.4-17.14,18.84,3.83,37.67-14.5,56.51-12.28C391.69,169,394.2,175.94,396.71,183.38Z" style="fill:#ebebeb"></path><path d="M370.31,175.11c.53,3.34-3.26,7.56-8.49,9.72s-9.34.74-9.2-2.86,3.93-7.79,8.48-9.67S369.77,171.73,370.31,175.11Z" style="fill:#dbdbdb"></path><path d="M346.79,183.28c-.08.84-1.22,1.78-2.54,2s-2.3-.31-2.17-1.14,1.26-1.63,2.54-1.88S346.88,182.45,346.79,183.28Z" style="fill:#dbdbdb"></path><path d="M380.81,171.86c.22.79-.68,1.57-2,1.84s-2.54-.07-2.72-.83.72-1.68,2-2S380.59,171.08,380.81,171.86Z" style="fill:#dbdbdb"></path><path d="M334.38,174.92c-1.67,6.07-3.33,12-5,17.69-.7-.24-1.41-.52-2.11-.84,1.8-5.48,3.6-11.21,5.4-17.14C333.24,174.75,333.81,174.84,334.38,174.92Z" style="fill:#dbdbdb"></path><path d="M396.71,183.38q-1.05-.48-2.1-.84c-2.38-7.15-4.76-13.89-7.14-20.33.57,0,1.14.08,1.71.14C391.69,169,394.2,175.94,396.71,183.38Z" style="fill:#dbdbdb"></path><path d="M396.24,182c.16.46.31.93.47,1.4-23.14-10.41-46.29,18.8-69.44,8.39.12-.34.23-.69.34-1C350.49,200.64,373.36,172.22,396.24,182Z" style="fill:#dbdbdb"></path><path d="M389.18,162.35c.16.42.32.84.47,1.26-19.1-2.61-38.21,16.3-57.32,12.14.12-.37.23-.75.34-1.12C351.51,178.46,370.34,160.14,389.18,162.35Z" style="fill:#dbdbdb"></path><path d="M334.29,192.61a25.53,25.53,0,0,1-4.6-1.08c.23-.8.47-1.6.7-2.4C332.86,189.87,334.61,191.18,334.29,192.61Z" style="fill:#dbdbdb"></path><path d="M393.17,178.26l1,2.93a26.09,26.09,0,0,0-4.6-1.05C389.08,178.65,390.69,177.57,393.17,178.26Z" style="fill:#dbdbdb"></path><path d="M384.07,163.41a30.92,30.92,0,0,1,3.85,0c.33.9.66,1.8,1,2.72C386.72,165.9,384.55,164.84,384.07,163.41Z" style="fill:#dbdbdb"></path><path d="M333.37,178.58c.24-.84.47-1.67.7-2.52a27.43,27.43,0,0,0,3.83.29C337.59,177.8,335.56,179,333.37,178.58Z" style="fill:#dbdbdb"></path><path d="M361.28,173.8c.22-.09.42-.05.42.09l0,.43a7.44,7.44,0,0,1,3.1-.48c.16,0,.26,0,.27.15s-.18.35-.42.44a.51.51,0,0,1-.32,0,6.53,6.53,0,0,0-2.63.35c.06,1,.13,2,.19,3,2.72-.75,3.92-.6,4,.44s-1.43,2.57-3.74,3.56l.06.84c0,.14-.19.34-.44.44s-.45.06-.46-.08l0-.86a8.77,8.77,0,0,1-4.17.6c-.13,0-.2-.06-.2-.15s.21-.37.45-.46a.65.65,0,0,1,.33-.05,7.17,7.17,0,0,0,3.6-.44c-.06-1-.12-2.05-.17-3.08-2.68.72-3.78.54-3.79-.56s1.47-2.54,3.54-3.42l0-.41C360.89,174.08,361.06,173.89,361.28,173.8Zm-.14,4.26c-.06-1-.11-2-.16-3-1.66.7-2.74,1.77-2.72,2.56S358.85,178.64,361.14,178.06Zm.82.34.18,3c1.84-.77,3-1.87,2.9-2.68S364.3,177.77,362,178.4Z" style="fill:#ebebeb"></path><path d="M288.35,321.66c-26.61-11-53.23,13-79.84,2.06,2.75-6,5.5-12.38,8.25-19.06,21.65,3.65,43.31-11.11,65-6.52Q285,309.57,288.35,321.66Z" style="fill:#ebebeb"></path><path d="M259,309.8c.24,3.95-4.44,8.16-10.45,9.67s-10.43-.83-9.88-5,5.21-8.39,10.44-9.7S258.74,305.81,259,309.8Z" style="fill:#dbdbdb"></path><path d="M232,315.18c-.18.95-1.56,1.89-3.09,2s-2.56-.58-2.33-1.51,1.61-1.75,3.09-1.9S232.18,314.24,232,315.18Z" style="fill:#dbdbdb"></path><path d="M271.1,307.8c.16.92-.94,1.69-2.46,1.8s-2.85-.46-3-1.37,1-1.8,2.46-1.93S270.94,306.88,271.1,307.8Z" style="fill:#dbdbdb"></path><path d="M218.72,305c-2.6,6.83-5.19,13.41-7.79,19.67-.81-.27-1.61-.57-2.42-.9,2.75-6,5.5-12.38,8.24-19.06C217.41,304.77,218.07,304.87,218.72,305Z" style="fill:#dbdbdb"></path><path d="M288.35,321.66c-.81-.34-1.62-.64-2.43-.91q-3.07-11.76-6.17-23c.66.11,1.32.23,2,.37Q285,309.57,288.35,321.66Z" style="fill:#dbdbdb"></path><path d="M287.93,320.14c.14.5.28,1,.41,1.52-26.61-11-53.22,13-79.83,2.06.18-.38.35-.76.52-1.14C235.33,333,261.63,309.64,287.93,320.14Z" style="fill:#dbdbdb"></path><path d="M281.72,298.14l.42,1.44c-22-4.91-43.93,10.34-65.9,6.34.17-.42.34-.84.52-1.26C238.41,308.31,260.07,293.55,281.72,298.14Z" style="fill:#dbdbdb"></path><path d="M216.7,324.72a39,39,0,0,1-5.28-1.28l1.09-2.65C215.35,321.6,217.23,323.15,216.7,324.72Z" style="fill:#dbdbdb"></path><path d="M284.68,316c.29,1.08.57,2.17.86,3.26a39.27,39.27,0,0,0-5.29-1.31C279.86,316.27,281.84,315.18,284.68,316Z" style="fill:#dbdbdb"></path><path d="M275.72,298.68a41.25,41.25,0,0,1,4.42.51c.29,1,.58,2.09.86,3.14C278.48,301.83,276.12,300.35,275.72,298.68Z" style="fill:#dbdbdb"></path><path d="M217.15,309.06l1.08-2.83a43.65,43.65,0,0,0,4.41.35C222.12,308.21,219.66,309.46,217.15,309.06Z" style="fill:#dbdbdb"></path><path d="M249.13,306.57c.25-.06.46,0,.45.19s0,.33,0,.5a7.77,7.77,0,0,1,3.48,0c.18,0,.27.1.27.22s-.23.37-.51.44a.74.74,0,0,1-.36,0,6.6,6.6,0,0,0-2.94-.1c0,1.18-.07,2.36-.11,3.54,3.09-.36,4.4.06,4.41,1.28s-1.87,2.71-4.52,3.41l0,1c0,.16-.25.36-.53.43s-.51,0-.5-.18c0-.33,0-.67,0-1a9.56,9.56,0,0,1-4.67-.08c-.14-.05-.22-.1-.21-.22s.28-.38.55-.44a.62.62,0,0,1,.37,0,7.81,7.81,0,0,0,4,.16c0-1.2.09-2.41.14-3.61-3,.33-4.24-.07-4.13-1.35s1.9-2.69,4.28-3.31c0-.16,0-.32,0-.49S248.88,306.63,249.13,306.57Zm-.62,4.91c0-1.15.09-2.3.14-3.45-1.91.49-3.22,1.54-3.28,2.45S245.92,311.73,248.51,311.48Zm.87.56-.12,3.48c2.12-.54,3.49-1.59,3.49-2.55S252,311.75,249.38,312Z" style="fill:#ebebeb"></path></g><g id="freepik--Table--inject-197"><path d="M45.3,454.19c131.15-.61,278.26-.62,409.4,0-131.15.62-278.26.61-409.4,0Z" style="fill:#263238"></path></g><g id="freepik--Plant--inject-197"><path d="M104.27,370.7C92.86,386.15,81,404.09,78.06,423.47c0,.29.44.39.51.1a115.22,115.22,0,0,1,5-15.52c7.5-2.07,14.87-3.76,18.81-11.21,4-7.65,3.51-17.63,2.74-26C105.11,370.42,104.5,370.4,104.27,370.7Z" style="fill:#FFC727"></path><path d="M83.72,407.9c5.13-11.5,11.71-23,20.08-32.51,0-.07.14,0,.09.09-5.48,6.74-9.64,14.08-13.7,21.54,3.78-3.84,7.92-7.27,11.5-11.34.07-.08.18,0,.11.12-3.55,4.26-7.44,8.89-12.06,12.05-1.25,2.29-2.5,4.59-3.77,6.89.31-.18.63-.33,1-.49.06,0,.11.06,0,.08-.35.18-.7.37-1.07.53-.6,1.08-1.19,2.17-1.81,3.26C84,408.36,83.62,408.15,83.72,407.9Z" style="fill:#263238"></path><path d="M87.54,403.89A66.78,66.78,0,0,0,96.3,398c.07-.06.18,0,.11.11a45.93,45.93,0,0,1-8.75,6A.12.12,0,0,1,87.54,403.89Z" style="fill:#263238"></path><path d="M76.74,420.59c0,.23.42.23.42,0,.06-6.38,0-12.8.1-19.21,1.64-3.3,5.15-5.12,7.59-7.77a34.08,34.08,0,0,0,4.55-6.34,45.51,45.51,0,0,0,5.28-17.6c.67-6.83-1.92-29.36-4.8-28.58-1.49.41-6.32,11.57-7.6,15.26A106,106,0,0,0,77.74,375C75.41,390.05,75.6,405.47,76.74,420.59Z" style="fill:#FFC727"></path><path d="M76.7,393.05l0,0C77.07,385,78.89,376.8,80.6,369c1.83-8.43,4-16.38,8.32-23.9a.12.12,0,1,1,.21.12,89.31,89.31,0,0,0-6.68,18.35c.29-.45.64-.88,1-1.31.12-.17.39,0,.28.16a11.88,11.88,0,0,1-1.36,1.92.07.07,0,0,1-.06,0c-1.49,6-2.56,12.2-3.48,18.36l.2-.24a.06.06,0,0,1,.1.07c-.12.21-.25.41-.37.61-.46,3.13-.89,6.24-1.32,9.33,5.56-4.75,10.31-10.35,13-17.26a0,0,0,1,1,.05,0c-2.62,7.16-6.76,13.52-13.13,17.87-.12.83-.23,1.66-.35,2.49,0,.18-.3.13-.3,0,0-.73,0-1.47.07-2.21A.17.17,0,0,1,76.7,393.05Z" style="fill:#263238"></path><path d="M79.32,381.35c4.25-6.34,8.22-12.5,11.33-19.51,0-.08.17,0,.14.06-2.63,7-6.3,14-11.26,19.62C79.43,381.63,79.23,381.48,79.32,381.35Z" style="fill:#263238"></path><path d="M85,360.27c1.77-3.11,3.62-6.15,5.28-9.32.05-.09.17,0,.13.07a48.46,48.46,0,0,1-5.13,9.41C85.12,360.59,84.86,360.45,85,360.27Z" style="fill:#263238"></path><path d="M84.28,361.63a0,0,0,0,1,0,.05S84.24,361.63,84.28,361.63Z" style="fill:#263238"></path><path d="M72.42,402.13a64.62,64.62,0,0,1-1.49,12.57c.07.46.13.91.2,1.38a60.15,60.15,0,0,0,2.25-14,.44.44,0,0,0,0-.43h0a93.11,93.11,0,0,0-1.41-19c-2-11.73-6.3-23-14.48-31.78a.58.58,0,0,0-.9.18c-3.3,8.4-2.15,18.41.66,26.79a49.13,49.13,0,0,0,6.49,12.72C66.57,394.48,70.14,397.82,72.42,402.13Z" style="fill:#FFC727"></path><path d="M58.48,354.78c7.75,12.58,13.15,27.5,13.81,42.36,0,.26-.43.33-.47.06-.19-1.33-.39-2.66-.6-4h0c-3.2-3.07-6.5-6.31-8.79-10.15,0-.07.05-.15.11-.09a106,106,0,0,0,8.54,9.3c-.55-3.28-1.21-6.52-2-9.7l-.61-.72c-.14-.16.09-.39.23-.23l.18.2A113.62,113.62,0,0,0,64.82,369c-2-2.35-4.18-4.39-5.62-7.22a.06.06,0,0,1,.1-.06c1.16,1.62,2.28,3.25,3.59,4.76.52.6,1.1,1.16,1.64,1.74A100.06,100.06,0,0,0,58.18,355,.17.17,0,0,1,58.48,354.78Z" style="fill:#263238"></path><path d="M60.05,370.3c2.5,3.37,5.36,6.59,7.69,10.07.07.1-.08.21-.16.13a51.5,51.5,0,0,1-7.7-10.1C59.81,370.29,60,370.2,60.05,370.3Z" style="fill:#263238"></path><path d="M68.09,381.15l.11.11c.07.07,0,.19-.12.12l-.11-.11C67.9,381.19,68,381.08,68.09,381.15Z" style="fill:#263238"></path><path d="M46.33,379a38.7,38.7,0,0,0,8.18,19.2,20.43,20.43,0,0,0,6.64,5.17C64,404.76,67,406.39,70,407.56a57.91,57.91,0,0,1,3.14,11.14c.09-.33.19-.67.28-1-1.9-16.39-12.51-30.4-26.07-39.39A.66.66,0,0,0,46.33,379Z" style="fill:#FFC727"></path><path d="M51,383.81c-.09-.09,0-.26.14-.18a55.37,55.37,0,0,1,17.28,21.3c.1.22-.2.42-.33.2-.63-1.11-1.28-2.18-1.93-3.24h0c-3.1-.58-6-2.76-8.33-4.83-.06-.05,0-.14.1-.09a18.64,18.64,0,0,0,3.91,2.75c1.27.64,2.62,1,3.94,1.56q-1.73-2.73-3.59-5.26a36.13,36.13,0,0,1-9.31-5.23c-.09-.07,0-.21.09-.15a91,91,0,0,0,8.65,4.62,77.37,77.37,0,0,0-6.11-7.12c-1.05-.55-2.12-1.11-3.14-1.71a.09.09,0,0,1,.07-.16,11.72,11.72,0,0,1,2.41,1.19C53.63,386.22,52.37,385,51,383.81Z" style="fill:#263238"></path><path d="M51.31,389.47a2.73,2.73,0,0,1,.52.37c.05,0,0,.11-.06.08a3,3,0,0,1-.55-.31C51.13,389.55,51.21,389.4,51.31,389.47Z" style="fill:#263238"></path><polygon points="94.6 454.19 57.42 454.19 60.42 420.34 61.08 412.87 90.94 412.87 91.59 420.34 94.6 454.19" style="fill:#455a64"></polygon><polygon points="91.59 420.34 60.42 420.34 61.08 412.87 90.94 412.87 91.59 420.34" style="fill:#263238"></polygon><rect x="59.3" y="407.65" width="33.41" height="7.39" style="fill:#455a64"></rect></g><g id="freepik--House--inject-197"><rect x="148.59" y="45.34" width="92.73" height="92.73" style="fill:#FFC727"></rect><rect x="148.59" y="45.34" width="92.73" height="92.73" style="fill:#fff;opacity:0.8"></rect><path d="M244.72,141.48h-2.25V141h2v.07h.25Zm-4.25,0h-2V141h2Zm-4,0h-2V141h2Zm-4,0h-2V141h2Zm-4,0h-2V141h2Zm-4,0h-2V141h2Zm-4,0h-2V141h2Zm-4,0h-2V141h2Zm-4,0h-2V141h2Zm-4,0h-2V141h2Zm-4,0h-2V141h2Zm-4,0h-2V141h2Zm-4,0h-2V141h2Zm-4,0h-2V141h2Zm-4,0h-2V141h2Zm-4,0h-2V141h2Zm-4,0h-2V141h2Zm-4,0h-2V141h2Zm-4,0h-2V141h2Zm-4,0h-2V141h2Zm-4,0h-2V141h2Zm-4,0h-2V141h2Zm-4,0h-2V141h2Zm-4,0h-2V141h2Zm-4,0h-2V141h2Zm-2.79-1.21h-.5v-2h.5Zm99-1.22h-.5v-2h.5Zm-99-2.78h-.5v-2h.5Zm99-1.22h-.5v-2h.5Zm-99-2.78h-.5v-2h.5Zm99-1.22h-.5v-2h.5Zm-99-2.78h-.5v-2h.5Zm99-1.22h-.5v-2h.5Zm-99-2.78h-.5v-2h.5Zm99-1.22h-.5v-2h.5Zm-99-2.78h-.5v-2h.5Zm99-1.22h-.5v-2h.5Zm-99-2.78h-.5v-2h.5Zm99-1.22h-.5v-2h.5Zm-99-2.78h-.5v-2h.5Zm99-1.22h-.5v-2h.5Zm-99-2.78h-.5v-2h.5Zm99-1.22h-.5v-2h.5Zm-99-2.78h-.5v-2h.5Zm99-1.22h-.5v-2h.5Zm-99-2.78h-.5v-2h.5Zm99-1.22h-.5v-2h.5Zm-99-2.78h-.5v-2h.5Zm99-1.22h-.5v-2h.5Zm-99-2.78h-.5v-2h.5Zm99-1.22h-.5v-2h.5Zm-99-2.78h-.5v-2h.5Zm99-1.22h-.5v-2h.5Zm-99-2.78h-.5v-2h.5Zm99-1.22h-.5v-2h.5Zm-99-2.78h-.5v-2h.5Zm99-1.22h-.5v-2h.5Zm-99-2.78h-.5v-2h.5Zm99-1.22h-.5v-2h.5Zm-99-2.78h-.5v-2h.5Zm99-1.22h-.5v-2h.5Zm-99-2.78h-.5v-2h.5Zm99-1.22h-.5v-2h.5Zm-99-2.78h-.5v-2h.5Zm99-1.22h-.5v-2h.5Zm-99-2.78h-.5v-2h.5Zm99-1.22h-.5v-2h.5Zm-99-2.78h-.5v-2h.5Zm99-1.22h-.5v-2h.5Zm-99-2.78h-.5v-2h.5Zm99-1.22h-.5v-2h.5Zm-99-2.78h-.5v-2h.5Zm99-1.22h-.5v-2h.5Zm-99-2.78h-.5v-2h.5Zm99-1.22h-.5v-.62h-.87v-.5h1.37Zm-3.37-.62h-2v-.5h2Zm-4,0h-2v-.5h2Zm-4,0h-2v-.5h2Zm-4,0h-2v-.5h2Zm-4,0h-2v-.5h2Zm-4,0h-2v-.5h2Zm-4,0h-2v-.5h2Zm-4,0h-2v-.5h2Zm-4,0h-2v-.5h2Zm-4,0h-2v-.5h2Zm-4,0h-2v-.5h2Zm-4,0h-2v-.5h2Zm-4,0h-2v-.5h2Zm-4,0h-2v-.5h2Zm-4,0h-2v-.5h2Zm-4,0h-2v-.5h2Zm-4,0h-2v-.5h2Zm-4,0h-2v-.5h2Zm-4,0h-2v-.5h2Zm-4,0h-2v-.5h2Zm-4,0h-2v-.5h2Zm-4,0h-2v-.5h2Zm-4,0h-2v-.5h2Zm-4,0h-2v-.5h2Z" style="fill:#263238"></path><path d="M195,141.23q12.24,15.27,23.28,31.48Q206,157.43,195,141.23Z" style="fill:#263238"></path><rect x="168.9" y="60.82" width="8.39" height="11.04" style="fill:#FFC727"></rect><rect x="168.9" y="60.82" width="8.39" height="11.04" style="opacity:0.2"></rect><rect x="177.29" y="60.82" width="6.6" height="11.04" style="fill:#FFC727"></rect><rect x="167.96" y="57.07" width="9.33" height="3.75" style="fill:#FFC727"></rect><rect x="167.96" y="57.07" width="9.33" height="3.75" style="opacity:0.5"></rect><rect x="177.29" y="57.07" width="7.31" height="3.75" style="fill:#FFC727"></rect><rect x="177.29" y="57.07" width="7.31" height="3.75" style="opacity:0.4"></rect><polygon points="206.75 138.07 141.1 138.07 138.16 106.25 206.75 106.25 206.75 138.07" style="fill:#FFC727"></polygon><polygon points="206.75 138.07 141.1 138.07 138.16 106.25 206.75 106.25 206.75 138.07" style="opacity:0.2"></polygon><polygon points="206.75 106.25 230.33 76.72 249.1 106.25 246.17 138.07 206.75 138.07 206.75 106.25" style="fill:#FFC727"></polygon><polygon points="230.04 78.59 249.43 108.57 254.36 108.57 228.78 67.35 160.79 67.35 135.55 111.99 210.7 111.99 230.04 78.59" style="fill:#455a64"></polygon><rect x="224.2" y="95.87" width="10.38" height="14.84" transform="translate(458.78 206.58) rotate(180)" style="fill:#fbfaff"></rect><rect x="229.96" y="97.09" width="3.34" height="5.65" style="fill:#FFC727"></rect><rect x="225.48" y="97.09" width="3.34" height="5.65" style="fill:#FFC727"></rect><rect x="229.96" y="103.81" width="3.34" height="5.65" style="fill:#FFC727"></rect><rect x="225.48" y="103.81" width="3.34" height="5.65" style="fill:#FFC727"></rect><rect x="148.19" y="118.06" width="10.38" height="14.84" style="fill:#fbfaff"></rect><rect x="149.47" y="119.27" width="3.34" height="5.64" style="fill:#FFC727"></rect><rect x="153.95" y="119.27" width="3.34" height="5.64" style="fill:#FFC727"></rect><rect x="149.47" y="126" width="3.34" height="5.65" style="fill:#FFC727"></rect><rect x="153.95" y="126" width="3.34" height="5.65" style="fill:#FFC727"></rect><rect x="167.26" y="118.06" width="10.38" height="14.84" style="fill:#fbfaff"></rect><rect x="168.54" y="119.27" width="3.34" height="5.64" style="fill:#FFC727"></rect><rect x="173.03" y="119.27" width="3.34" height="5.64" style="fill:#FFC727"></rect><rect x="168.54" y="126" width="3.34" height="5.65" style="fill:#FFC727"></rect><rect x="173.03" y="126" width="3.34" height="5.65" style="fill:#FFC727"></rect><rect x="186.34" y="118.06" width="10.38" height="14.84" style="fill:#fbfaff"></rect><rect x="187.62" y="119.27" width="3.34" height="5.64" style="fill:#FFC727"></rect><rect x="192.1" y="119.27" width="3.34" height="5.64" style="fill:#FFC727"></rect><rect x="187.62" y="126" width="3.34" height="5.65" style="fill:#FFC727"></rect><rect x="192.1" y="126" width="3.34" height="5.65" style="fill:#FFC727"></rect><rect x="223.66" y="117.27" width="11.46" height="20.8" transform="translate(458.78 255.33) rotate(180)" style="fill:#fbfaff"></rect><rect x="228.16" y="118.7" width="2.47" height="3.11" style="fill:#FFC727"></rect><rect x="224.93" y="118.7" width="2.47" height="3.11" style="fill:#FFC727"></rect><rect x="226.79" y="132.36" width="5.2" height="0.75" transform="translate(458.78 265.46) rotate(180)" style="fill:#FFC727"></rect><rect x="231.39" y="118.7" width="2.47" height="3.11" style="fill:#FFC727"></rect><rect x="228.16" y="122.63" width="2.47" height="3.11" style="fill:#FFC727"></rect><rect x="224.93" y="122.63" width="2.47" height="3.11" style="fill:#FFC727"></rect><rect x="231.39" y="122.63" width="2.47" height="3.11" style="fill:#FFC727"></rect><rect x="228.16" y="126.57" width="2.47" height="3.11" style="fill:#FFC727"></rect><rect x="224.93" y="126.57" width="2.47" height="3.11" style="fill:#FFC727"></rect><rect x="231.39" y="126.57" width="2.47" height="3.11" style="fill:#FFC727"></rect><path d="M187.82,78H172.75L165,87.67h17.06Z" style="fill:#37474f"></path><polygon points="176.41 86.02 176.41 97.75 168.02 97.75 168.02 86.02 172.21 80.78 176.41 86.02" style="fill:#FFC727"></polygon><polygon points="176.41 86.02 176.41 97.75 168.02 97.75 168.02 86.02 172.21 80.78 176.41 86.02" style="opacity:0.2"></polygon><polygon points="176.41 86.01 183 86.01 176.41 97.74 176.41 86.01" style="fill:#FFC727"></polygon><rect x="169.61" y="86.2" width="4.77" height="8.05" style="fill:#fbfaff"></rect><rect x="170.2" y="86.76" width="1.53" height="2.59" style="fill:#FFC727"></rect><rect x="172.25" y="86.76" width="1.53" height="2.59" style="fill:#FFC727"></rect><rect x="170.2" y="89.82" width="1.53" height="3.84" style="fill:#FFC727"></rect><rect x="172.25" y="89.82" width="1.53" height="3.84" style="fill:#FFC727"></rect></g><g id="freepik--Coin--inject-197"><path d="M250,172.75c-61.65,0-61.75,87.67,0,87.67S311.75,172.75,250,172.75Z" style="fill:#FFC727"></path><path d="M250,172.75c-61.65,0-61.75,87.67,0,87.67S311.75,172.75,250,172.75Z" style="opacity:0.1"></path><path d="M250,168.68c-61.65,0-61.75,87.67,0,87.67S311.75,168.68,250,168.68Z" style="fill:#FFC727"></path><path d="M287.49,220.73c-3.29,15.08-15.79,28.16-37.5,28.16-51.24,0-51.16-72.76,0-72.76.34,0,.67,0,1,0-48.15.88-47.92,69.79.94,69.79C271.87,245.94,283.75,234.41,287.49,220.73Z" style="opacity:0.1"></path><g style="opacity:0.1"><path d="M250.37,185.72a1.57,1.57,0,0,1,1.6,1.47v2.44a22.87,22.87,0,0,1,11.87,4.27c.6.43.93.79.93,1.41a1.64,1.64,0,0,1-1.73,1.52,1.71,1.71,0,0,1-1.2-.43,19.88,19.88,0,0,0-10-4v17.08c10.14,2,14.41,5.44,14.41,11.42,0,6.47-5.94,11-14.27,11.29V237a1.61,1.61,0,0,1-3.2,0v-4.82a26.27,26.27,0,0,1-15-5.92A1.57,1.57,0,0,1,233,225a1.68,1.68,0,0,1,1.67-1.53,1.73,1.73,0,0,1,1.2.43,22.52,22.52,0,0,0,13,5.55V212c-10-2-14.14-5.37-14.14-11.48s5.87-10.86,14-11v-2.32A1.56,1.56,0,0,1,250.37,185.72Zm-1.47,23.19V192.25c-6.47.13-10.74,3.66-10.74,8.06C238.16,204.46,240.3,207,248.9,208.91Zm2.93,3.73v16.84c6.67-.12,11-3.66,11-8.3C262.84,217,260.51,214.41,251.83,212.64Z"></path></g></g><g id="freepik--Character--inject-197"><path d="M227.85,375.67A97.64,97.64,0,0,1,211.08,390c7.49-18.45.22-56.47-.18-50.83-2,27-14.06,58-20.09,60.34l-.1,0c-16.43,4.69-32.32,2.46-46.11-2.73a.19.19,0,0,1,0-.09c10.07-21.1,3.69-59.91,3.17-57.41-5.68,26.8-23.08,44.57-26.49,45h0c-14.4-10.15-22.88-21.17-21.27-22.66,11.73-10.84,19.42-35.4,25.82-61.1v0c6.34-25.34,7.93-48.79,18.69-72.17,9.84-21.41,34.79-28.93,50.72-21.14C237.06,227.66,235,368.13,227.85,375.67Z" style="fill:#263238"></path><path d="M192.42,206c3.56,1,6.64,3.25,9.43,5.63a61.65,61.65,0,0,1,7.54,8.12,105.1,105.1,0,0,1,11.13,19.14c6.26,13.41,10,27.86,12.47,42.39a259.23,259.23,0,0,1,3,44.07c0,3.68-.24,7.36-.35,11l-.69,11-1.11,11-1.43,10.93.77-11,.55-11,.34-11c0-3.66.11-7.32,0-11a282.36,282.36,0,0,0-3.51-43.68,175.34,175.34,0,0,0-11.73-42,107.1,107.1,0,0,0-10.39-19.19,60.93,60.93,0,0,0-7-8.34,36,36,0,0,0-4.2-3.49A18.36,18.36,0,0,0,192.42,206Z" style="fill:#263238"></path><path d="M97.9,357.94a189.64,189.64,0,0,0,8.85-16.89c2.74-5.72,5.26-11.55,7.49-17.48s4.3-11.92,6-18,3.15-12.31,4.74-18.47c3.31-12.3,6.59-24.63,10.61-36.74,2.05-6.05,4.2-12.07,6.75-17.93a88,88,0,0,1,4.33-8.56c1.63-2.74,3.45-5.49,6.07-7.36-2.44,2.07-4,4.89-5.5,7.67a88.49,88.49,0,0,0-3.79,8.71c-2.3,5.9-4.24,11.95-6.06,18-3.63,12.17-6.92,24.45-10,36.79-1.67,6.15-3.2,12.3-5,18.46a164.52,164.52,0,0,1-6.37,18.1A183.4,183.4,0,0,1,97.9,357.94Z" style="fill:#263238"></path><path d="M194.82,339.14c13.56,42.52,49,100.08,66.41,102.6,8.3,1.2,22.88,5.13,35-3,26.54-17.73,53-53.17,61.21-73.77,3.07-7.72-37.17-34.2-43.87-28.35-15.69,13.69-35.54,42-37.94,41.48-8.85-1.85-40-35.55-61.73-59.26C187.57,290.07,189.41,322.2,194.82,339.14Z" style="fill:#eb9481"></path><path d="M213.87,393.48l34.56-43.28s-27.51-30.34-45.09-42.91c-9.85-7.05-15.45.5-14.06,11.36C194.15,356.64,213.87,393.48,213.87,393.48Z" style="fill:#FFC727"></path><path d="M213.87,393.48l34.56-43.28s-27.51-30.34-45.09-42.91c-9.85-7.05-15.45.5-14.06,11.36C194.15,356.64,213.87,393.48,213.87,393.48Z" style="fill:#455a64"></path><path d="M237.43,340.48a3,3,0,1,0,0,6.07,3,3,0,0,0,0-6.07Zm0,5.55a2.51,2.51,0,1,1,2.5-2.5A2.51,2.51,0,0,1,237.43,346Zm-27.94,3.78a3,3,0,1,0,3,3A3,3,0,0,0,209.49,349.81Zm0,5.52a2.5,2.5,0,1,1,0-5,2.5,2.5,0,1,1,0,5Zm2.21-29.75a3,3,0,1,0,3,3A3,3,0,0,0,211.7,325.58Zm0,5.55a2.52,2.52,0,1,1,2.5-2.53A2.52,2.52,0,0,1,211.7,331.13ZM189.21,313c0,.17,0,.34-.06.52a2.51,2.51,0,0,1,1.77,2.41,2.49,2.49,0,0,1-1.69,2.36c0,.13,0,.26.05.39s0,.09,0,.13a3,3,0,0,0,2.14-2.88A3,3,0,0,0,189.21,313Zm41.55,59.36a3,3,0,1,0-3,3.24,3.33,3.33,0,0,0,.46,0l.58-.71a2.58,2.58,0,0,1-1,.22,2.52,2.52,0,1,1,2.52-2.52,2.22,2.22,0,0,1-.06.51Z" style="fill:#fff"></path><path d="M244.47,355.13l-30.59,38.36s-19.72-36.85-24.6-74.83c-1-7.47,1.4-13.35,6.15-14Z" style="opacity:0.1"></path><path d="M240.41,346.27c-5.87,6.22-21.3,23.55-29.85,36.12-.06.07.21.3.27.24,8.7-9.39,24.66-29.32,30-36C240.9,346.48,240.52,346.15,240.41,346.27Z" style="fill:#263238"></path><path d="M88.14,454.37,237.19,454,229,402.77s11.79-14.31,9.56-29.82c-2.44-17-33.1-60.1-35.68-62.53-10.38-9.74-21.36-11.49-31.92-8h0C122.16,333.08,88.14,454.37,88.14,454.37Z" style="fill:#455a64"></path><path d="M234.05,434.48a2.51,2.51,0,0,1-4.44-1.6,2.52,2.52,0,0,1,2.52-2.53,2.41,2.41,0,0,1,1.32.39l-.1-.65a2.9,2.9,0,0,0-1.22-.26,3,3,0,1,0,0,6.07,3,3,0,0,0,2-.77ZM204,418.82a3,3,0,1,0,3,3A3,3,0,0,0,204,418.82Zm0,5.55a2.52,2.52,0,1,1,2.51-2.51A2.51,2.51,0,0,1,204,424.37Zm23.77-54.87a3,3,0,1,0,3,3A3,3,0,0,0,227.73,369.5Zm0,5.55a2.52,2.52,0,1,1,2.52-2.52A2.51,2.51,0,0,1,227.73,375.05ZM118.47,446.24a3,3,0,1,0,3,3.05A3.05,3.05,0,0,0,118.47,446.24Zm0,5.55a2.51,2.51,0,1,1,2.5-2.5A2.51,2.51,0,0,1,118.47,451.79Zm30.89-15.53a3,3,0,1,0,3,3.05A3.05,3.05,0,0,0,149.36,436.26Zm0,5.54a2.51,2.51,0,1,1,2.49-2.49A2.51,2.51,0,0,1,149.36,441.8ZM126,359.53a2.9,2.9,0,0,0-.43,0c-.11.21-.22.4-.32.6a2.67,2.67,0,0,1,.75-.11,2.51,2.51,0,1,1-2.38,3.27l-.31.62a3,3,0,1,0,2.69-4.41Zm8.53,23.22a3,3,0,1,0,3,3A3,3,0,0,0,134.54,382.75Zm0,5.53a2.51,2.51,0,1,1,2.5-2.51A2.52,2.52,0,0,1,134.54,388.28Zm25-68.63a3,3,0,0,0,0,6.07,3,3,0,1,0,0-6.07Zm0,5.55a2.52,2.52,0,1,1,2.53-2.52A2.52,2.52,0,0,1,159.5,325.2Zm3,47.07a3,3,0,1,0,3,3A3,3,0,0,0,162.54,372.27Zm0,5.55a2.51,2.51,0,1,1,2.52-2.52A2.51,2.51,0,0,1,162.54,377.82Zm25.88-65a3,3,0,1,0,3,3A3,3,0,0,0,188.42,312.86Zm0,5.54a2.51,2.51,0,1,1,2.5-2.5A2.51,2.51,0,0,1,188.42,318.4Zm23.28,7.18a3,3,0,1,0,3,3A3,3,0,0,0,211.7,325.58Zm0,5.55a2.52,2.52,0,1,1,2.5-2.53A2.52,2.52,0,0,1,211.7,331.13ZM201.47,443.21a3,3,0,1,0,3,3A3,3,0,0,0,201.47,443.21Zm0,5.55a2.52,2.52,0,1,1,2.49-2.52A2.51,2.51,0,0,1,201.47,448.76Zm-27.73-25.33a3,3,0,1,0,3,3A3,3,0,0,0,173.74,423.43Zm0,5.53a2.51,2.51,0,1,1,2.5-2.51A2.52,2.52,0,0,1,173.74,429Zm32.73-42a3,3,0,1,0,3,3A3,3,0,0,0,206.47,387Zm0,5.54A2.51,2.51,0,1,1,209,390,2.51,2.51,0,0,1,206.47,392.49Zm3-42.68a3,3,0,1,0,3,3A3,3,0,0,0,209.49,349.81Zm0,5.52a2.5,2.5,0,1,1,0-5,2.5,2.5,0,1,1,0,5Zm21,43.84a3,3,0,0,0-1.2,5.8l-.1-.65a2.5,2.5,0,0,1,1.3-4.63,2,2,0,0,1,.61.08l.29-.47A2.92,2.92,0,0,0,230.5,399.17Zm-39.56-32.44a3,3,0,1,0,3,3A3.05,3.05,0,0,0,190.94,366.73Zm0,5.54a2.51,2.51,0,1,1,2.5-2.5A2.51,2.51,0,0,1,190.94,372.27Zm-77.87,26.9a3,3,0,1,0,3,3A3,3,0,0,0,113.07,399.17Zm0,5.53a2.51,2.51,0,1,1,2.5-2.51A2.51,2.51,0,0,1,113.07,404.7Zm60.67,46.58a3,3,0,0,0-3,2.89h.53a2.52,2.52,0,0,1,2.5-2.37,2.49,2.49,0,0,1,2.49,2.36h.53A3,3,0,0,0,173.74,451.28Zm-23.41-47.4a3,3,0,1,0,3,3A3,3,0,0,0,150.33,403.88Zm0,5.53a2.51,2.51,0,1,1,2.51-2.51A2.5,2.5,0,0,1,150.33,409.41Zm1.5-61.14a3,3,0,1,0,3,3A3,3,0,0,0,151.83,348.27Zm0,5.53a2.51,2.51,0,0,1,0-5,2.51,2.51,0,1,1,0,5ZM98.05,425.39a3.58,3.58,0,0,0-.58.05c-.07.21-.13.4-.2.59a2.54,2.54,0,0,1,.78-.12,2.52,2.52,0,1,1,0,5A2.47,2.47,0,0,1,96,429.8l-.21.58a3,3,0,0,0,2.3,1.08,3,3,0,1,0,0-6.07Zm33-5a3,3,0,1,0,3,3A3,3,0,0,0,131,420.37Zm0,5.54a2.51,2.51,0,1,1,2.52-2.52A2.51,2.51,0,0,1,131,425.91Zm48.25-29.25a3,3,0,1,0,3,3A3.05,3.05,0,0,0,179.28,396.66Zm0,5.53a2.5,2.5,0,1,1,2.5-2.5A2.51,2.51,0,0,1,179.28,402.19Zm-7.85-99.9a2.45,2.45,0,0,1-1.83,1h0l-.7.49a3,3,0,0,0,.52,0,3,3,0,0,0,2.76-1.76C171.92,302.13,171.67,302.2,171.43,302.29ZM180.79,336a3,3,0,0,0,0,6.07,3,3,0,1,0,0-6.07Zm0,5.55a2.52,2.52,0,1,1,2.53-2.53A2.52,2.52,0,0,1,180.79,341.53Z" style="fill:#fff"></path><path d="M205.36,398.85a124.65,124.65,0,0,0-18.1,3c-2.94.76-5.84,1.65-8.73,2.6-1.44.47-2.88.9-4.34,1.32a20.06,20.06,0,0,1-4.66.87.11.11,0,0,0,0,.22,33.65,33.65,0,0,0,4.49-.08,31.33,31.33,0,0,0,4.28-.81c3-.74,6-1.61,8.95-2.38,6-1.55,12.06-3.1,18.19-4.21C205.72,399.3,205.65,398.82,205.36,398.85Z" style="fill:#263238"></path><path d="M220.43,404.25a134,134,0,0,0-15.12-.73c-2.53,0-5,.21-7.55.45-1.2.12-2.4.26-3.6.41s-2.61.51-3.93.66c-.13,0-.14.23,0,.22,1.24-.11,2.51,0,3.77,0l3.77-.1c2.52-.06,5-.1,7.55-.18,5-.17,10.06-.29,15.11-.29C220.71,404.66,220.69,404.27,220.43,404.25Z" style="fill:#263238"></path><path d="M239.85,359.11c.3-1.57.49-3,.64-4.47s.23-3,.23-4.5a25.21,25.21,0,0,0-.42-4.68,11.06,11.06,0,0,0-2.08-4.93,6.5,6.5,0,0,0-2.55-1.93,6.58,6.58,0,0,0-1.53-.42,7.24,7.24,0,0,0-1.47-.06,8.82,8.82,0,0,0-5,2,13.89,13.89,0,0,0-3.19,3.64,12.7,12.7,0,0,0-1.74,4.51,5.48,5.48,0,0,0,.22,2.87,3.23,3.23,0,0,0,1.15,1.46,3.34,3.34,0,0,0,1.67.55,3.11,3.11,0,0,0,1.76-.42,3.84,3.84,0,0,0,1.14-1.13,6.5,6.5,0,0,0,.89-2.39,13.47,13.47,0,0,0,0-4.57,11,11,0,0,0-1.62-4.24,5.11,5.11,0,0,0-1.75-1.64,3.75,3.75,0,0,0-2.4-.4A7.25,7.25,0,0,0,220,340.6a24.09,24.09,0,0,0-4.51,7.17,24,24,0,0,1,5-6.67,6.33,6.33,0,0,1,3.48-1.71,3,3,0,0,1,2.81,1.78,9.14,9.14,0,0,1,1,3.71,11.33,11.33,0,0,1-.32,3.83,4.16,4.16,0,0,1-.7,1.48,1,1,0,0,1-.38.31.45.45,0,0,1-.28,0,.59.59,0,0,1-.29-.14.65.65,0,0,1-.08-.21,2.81,2.81,0,0,1,.1-1.3,10.48,10.48,0,0,1,4.19-5.62,4.79,4.79,0,0,1,2.81-.87,3.2,3.2,0,0,1,.62.09,2.4,2.4,0,0,1,.48.19,2.09,2.09,0,0,1,.7.69,6.88,6.88,0,0,1,.84,2.89,20.31,20.31,0,0,1,0,3.74,37.8,37.8,0,0,1-.53,3.89c-.24,1.29-.54,2.65-.88,3.82Z" style="fill:#FFC727"></path><path d="M239.85,359.11c.3-1.57.49-3,.64-4.47s.23-3,.23-4.5a25.21,25.21,0,0,0-.42-4.68,11.06,11.06,0,0,0-2.08-4.93,6.5,6.5,0,0,0-2.55-1.93,6.58,6.58,0,0,0-1.53-.42,7.24,7.24,0,0,0-1.47-.06,8.82,8.82,0,0,0-5,2,13.89,13.89,0,0,0-3.19,3.64,12.7,12.7,0,0,0-1.74,4.51,5.48,5.48,0,0,0,.22,2.87,3.23,3.23,0,0,0,1.15,1.46,3.34,3.34,0,0,0,1.67.55,3.11,3.11,0,0,0,1.76-.42,3.84,3.84,0,0,0,1.14-1.13,6.5,6.5,0,0,0,.89-2.39,13.47,13.47,0,0,0,0-4.57,11,11,0,0,0-1.62-4.24,5.11,5.11,0,0,0-1.75-1.64,3.75,3.75,0,0,0-2.4-.4A7.25,7.25,0,0,0,220,340.6a24.09,24.09,0,0,0-4.51,7.17,24,24,0,0,1,5-6.67,6.33,6.33,0,0,1,3.48-1.71,3,3,0,0,1,2.81,1.78,9.14,9.14,0,0,1,1,3.71,11.33,11.33,0,0,1-.32,3.83,4.16,4.16,0,0,1-.7,1.48,1,1,0,0,1-.38.31.45.45,0,0,1-.28,0,.59.59,0,0,1-.29-.14.65.65,0,0,1-.08-.21,2.81,2.81,0,0,1,.1-1.3,10.48,10.48,0,0,1,4.19-5.62,4.79,4.79,0,0,1,2.81-.87,3.2,3.2,0,0,1,.62.09,2.4,2.4,0,0,1,.48.19,2.09,2.09,0,0,1,.7.69,6.88,6.88,0,0,1,.84,2.89,20.31,20.31,0,0,1,0,3.74,37.8,37.8,0,0,1-.53,3.89c-.24,1.29-.54,2.65-.88,3.82Z" style="opacity:0.1"></path><path d="M245.86,426.55c4.07,5.75,3.24,23.33,5.71,25.79s27.74,2.2,29.44.75.9-7.65,2.81-8.68C284.57,444,245.86,426.55,245.86,426.55Z" style="fill:#FFC727"></path><path d="M283.82,444.42a2.74,2.74,0,0,0-1.08,1.87,119.86,119.86,0,0,1-33.85-9.11c-.59-4.28-1.43-8.36-3-10.63C245.86,426.55,284.57,444,283.82,444.42Z" style="opacity:0.1"></path><path d="M367,426.83c-5.09,7.35-2.34,23.05-4.8,25.51s-27.75,2.2-29.45.75-.92-8-1.93-9.23C330.3,443.2,367,426.83,367,426.83Z" style="fill:#FFC727"></path><path d="M367,426.83c-1.9,2.74-2.71,6.65-3.1,10.58a114.74,114.74,0,0,1-32.52,9,5.49,5.49,0,0,0-.56-2.54C330.3,443.2,367,426.83,367,426.83Z" style="opacity:0.1"></path><path d="M305,321.5c-56.77,0-78.5,39.8-78.5,63.09,0,23,16.5,62,78.5,62s82.57-33.09,82.57-62.56S362.35,321.5,305,321.5Z" style="fill:#FFC727"></path><path d="M325.85,324.38s23.22-17.81,48.37-15.69c8.66.73-5.72,19.5-6,34.15Z" style="fill:#FFC727"></path><path d="M358.54,335.67c-.15.93,7.87,4.36,8.69,3.83s1.67-12.07,8.21-24.37C376.4,313.32,360.09,325.75,358.54,335.67Z" style="opacity:0.1"></path><path d="M363.58,381.41a4.12,4.12,0,0,0,3.33-2.91,6.16,6.16,0,0,1-2.7,4.61c-.12.07-.06.28.09.24,4.44-1.67,4-8,2.4-11.94a6.5,6.5,0,0,0-.27-.66c-1-2.32-2.73-4-4.91-3.69C354.34,368.1,356.93,382.37,363.58,381.41Z" style="opacity:0.30000000000000004"></path><path d="M380.68,361.08c1.12,3.34,11.2.63,13.74,2.75,4,3.31,2.9,44.5-.76,47.82-2.06,1.86-13.49-.1-16.7,2.17S380.68,361.08,380.68,361.08Z" style="fill:#FFC727"></path><path d="M395,386.74c0,10-.84,18.16-1.88,18.16s-1.87-8.13-1.87-18.16.84-18.17,1.87-18.17S395,376.7,395,386.74Z" style="opacity:0.1"></path><path d="M277.09,334.7c.17-.05,17.31-5.63,33.26-1.27l1.59-5.81c-17.75-4.86-36,1.11-36.76,1.36l1.91,5.72-.95-2.86Z" style="opacity:0.30000000000000004"></path><path d="M253.29,422.16c-22.9-26.32-8.89-56.88-8.25-58.19a3.77,3.77,0,0,0-6.77-3.32,63.85,63.85,0,0,0-5.4,21.94c-1.1,16.74,4.44,32.11,17.54,42.57C254.36,428.32,256.23,425.54,253.29,422.16Z" style="fill:#fff"></path><path d="M243.32,352.29a4.1,4.1,0,1,0,4.1-4.09A4.09,4.09,0,0,0,243.32,352.29Z" style="fill:#fff"></path><path d="M153,315.88c-38,39.79-85.17,122.94-75.83,139.48,10.4,18.43,64.71-37.88,63-40.6-1.45-2.3,17.89-52.7,31.63-89.32S162.41,306,153,315.88Z" style="fill:#eb9481"></path><path d="M106.5,363.58,161,373.4s13.6-38.63,16.3-60.07c1.51-12-5.55-12.51-14.43-6.13C131.78,329.56,106.5,363.58,106.5,363.58Z" style="fill:#455a64"></path><path d="M126,359.53a3,3,0,1,0,3,3A3,3,0,0,0,126,359.53Zm0,5.53a2.51,2.51,0,1,1,2.5-2.51A2.51,2.51,0,0,1,126,365.06Zm33.49-45.41a3,3,0,0,0,0,6.07,3,3,0,1,0,0-6.07Zm0,5.55a2.52,2.52,0,1,1,2.53-2.52A2.52,2.52,0,0,1,159.5,325.2Zm-23.82,6.36a3.12,3.12,0,0,0-1.33.3h0c-.47.48-.94.94-1.4,1.42h0a2.92,2.92,0,0,0-.29,1.3,3,3,0,1,0,3-3Zm0,5.55a2.52,2.52,0,1,1,2.52-2.52A2.51,2.51,0,0,1,135.68,337.11Zm24.62,36.17.63.11a.54.54,0,0,1,.12-.09l.27-.77A2.74,2.74,0,0,0,160.3,373.28Zm-8.47-25a3,3,0,1,0,3,3A3,3,0,0,0,151.83,348.27Zm0,5.53a2.51,2.51,0,0,1,0-5,2.51,2.51,0,1,1,0,5Zm17.23-50,.35,0a3,3,0,0,0,1.76-.56A10.74,10.74,0,0,0,169.06,303.79Z" style="fill:#fff"></path><path d="M160.66,364.47c-8.26-2.2-30.85-7.53-46-9.08-.09,0-.17.33-.08.35,12.39,3.19,37.51,7.76,45.94,9.24C160.7,365,160.81,364.51,160.66,364.47Z" style="fill:#263238"></path><path d="M154.37,372.2q3.38.33,6.72.79l-.47.28c1.62-5.94,3.42-11.82,5.36-17.66s4-11.63,6.35-17.34c-1.43,6-3.15,11.9-5,17.78s-3.8,11.71-6,17.48l-.13.35-.34-.07C158.74,373.31,156.55,372.78,154.37,372.2Z" style="fill:#263238"></path><path d="M168.72,350a16.74,16.74,0,0,1,1.86-3.44,24.24,24.24,0,0,1,2.46-3.06,6.67,6.67,0,0,1-.64,1.87,12,12,0,0,1-1,1.7A12.43,12.43,0,0,1,168.72,350Z" style="fill:#263238"></path><path d="M80.11,457.8c12.51,8.58,35.5,2.48,94.82-7.46,8.21-1.38,14.08-61.92,5.24-60.9-11.13,1.28-54.07,8.67-57.14,9.61C97.12,407,71.62,452,80.11,457.8Z" style="fill:#eb9481"></path><path d="M168.17,391.07s24.74-5.26,38.59-4c18.55,1.69,33.87,10.79,40.06,15,12.92,8.77,38.1,38.89,30.69,47.66-6.71,7.93-30.89-24.16-30.89-24.16s30.06,28.65,20.22,36.72-35.78-30.78-35.78-30.78,30.22,30.13,18.76,36.85c-8.66,5.07-34.15-28.79-34.15-28.79s25.8,26.08,17.12,31.68c-9.59,6.2-35.08-23.58-35.08-23.58-24.46,10.53-40.41,5.54-51.34.63C143.72,447.1,168.17,391.07,168.17,391.07Z" style="fill:#eb9481"></path><path d="M236.86,415c3.65,3.23,7.37,6.49,10.72,10s6.59,7.22,9.59,11.07c7.38,9.43,10.52,16.49,10.28,16.08-5.72-9.82-17.52-22.72-20.87-26.27s-6.52-7.25-9.86-10.8C236.64,415,236.77,414.9,236.86,415Z" style="fill:#263238"></path><path d="M223.82,426.85c4.48,4.33,9.09,8.47,13.39,13s7.93,9.17,11.88,14c.31.37,0,.41-.31.06-4.14-4.64-8.33-8.6-12.52-13.19s-8.21-9.33-12.55-13.75C223.64,426.88,223.75,426.78,223.82,426.85Z" style="fill:#263238"></path><path d="M210.79,435c7.19,6.28,13.22,13.87,19,21.46.29.38-.1.39-.42,0-6.16-7.25-10.95-13-18.75-21.23C210.45,435.14,210.64,434.89,210.79,435Z" style="fill:#263238"></path><path d="M146.05,394.81c-27.19,5.55-28,5-49.08,23.42a92.62,92.62,0,0,1,9.7-10.21c3.52-3.11,7.18-6.18,11.64-8.21,8.88-3.52,18.31-4.61,27.74-5Z" style="fill:#263238"></path><path d="M176.91,311.8c1,2.44,15.57,17,27.05,14.69,3.73-.76.49-21.34.49-21.34l.11-1.58,1.5-22-27.49-12.22-3.94-1.57s0,6.06.05,13.6c0,.35,0,.7,0,1.07s0,.83,0,1.23c0,1.12,0,2.27,0,3.42,0,.87,0,1.72.07,2.64s.07,1.81.09,2.73C175.3,301.5,176.51,310.76,176.91,311.8Z" style="fill:#eb9481"></path><path d="M174.68,281.35a44.3,44.3,0,0,0,29.88,22.22l1.5-22-27.49-12.22-3.94-1.57S174.62,273.81,174.68,281.35Z" style="fill:#263238"></path><path d="M225.38,238.15c15.86,35.37-3.53,48.86-11.16,52.27-6.92,3.1-30.9,12.77-50.33-20.77s-8-52.09,7.46-60S209.52,202.79,225.38,238.15Z" style="fill:#eb9481"></path><path d="M216.24,233.66a23.84,23.84,0,0,1-2.65.39,4.33,4.33,0,0,1-2.78-.13,1.39,1.39,0,0,1-.58-1.58,3.43,3.43,0,0,1,2.89-1.91,5.07,5.07,0,0,1,3.58.58A1.47,1.47,0,0,1,216.24,233.66Z" style="fill:#263238"></path><path d="M194.43,248c.81-.42,1.5-.93,2.27-1.42s1.61-.91,2-1.89a1.38,1.38,0,0,0-.58-1.58,3.41,3.41,0,0,0-3.44.41,5,5,0,0,0-2.35,2.75A1.48,1.48,0,0,0,194.43,248Z" style="fill:#263238"></path><path d="M200.88,250.63c-.06-.09-.15.19-.11.29,1,2.42,1.84,5.38-.06,7.07-.06.05,0,.17.07.13C203.34,256.67,202.26,252.76,200.88,250.63Z" style="fill:#263238"></path><path d="M197.68,248.93c-4.07,1.25-1.26,9.3,2.51,8.13S201.09,247.88,197.68,248.93Z" style="fill:#263238"></path><path d="M196.24,249.9c-.54.7-1,1.75-1.76,2.13s-2-.15-2.91-.73c-.09-.06-.14,0-.1.14.51,1.55,1.66,2.92,3.39,2.57,1.58-.31,2.19-2.06,2-3.74C196.86,250,196.46,249.62,196.24,249.9Z" style="fill:#263238"></path><path d="M215.22,244.59c0-.1.24,0,.27.16.77,2.52,2.08,5.28,4.63,5.34.07,0,.11.13,0,.15C217.25,250.79,215.55,247.11,215.22,244.59Z" style="fill:#263238"></path><path d="M216.57,241.22c3.91-1.67,7,6.28,3.34,7.83S213.29,242.63,216.57,241.22Z" style="fill:#263238"></path><path d="M218.43,241.11c.79.18,1.7.7,2.47.46s1.21-1.38,1.45-2.42c0-.11.11-.06.15,0,.63,1.5.73,3.28-.61,4.13s-2.71-.15-3.66-1.52C218.06,241.55,218.11,241,218.43,241.11Z" style="fill:#263238"></path><path d="M209.07,271.68c.78.42,1.63,1.05,2.57.85a6.86,6.86,0,0,0,2.52-1.45.1.1,0,0,1,.15.1,3.52,3.52,0,0,1-2.8,2.33,2.78,2.78,0,0,1-2.65-1.64C208.77,271.74,209,271.62,209.07,271.68Z" style="fill:#263238"></path><path d="M216.19,259s1.85,3.52,2.49,5.26c.06.17-.34.4-.92.65,0,0,0,0-.07,0a8.83,8.83,0,0,1-9.19-.18.19.19,0,0,1,.17-.34,13.29,13.29,0,0,0,8.38-.58c-.06-.52-3.38-5.92-3.11-6a16.08,16.08,0,0,1,4.29-.54c-3.65-7.44-8.47-14.24-12-21.71a.25.25,0,0,1,.41-.28c5.56,6.77,9.95,15.25,13.92,22.84C221.07,259,217,259,216.19,259Z" style="fill:#263238"></path><path d="M168.92,278c6.18-7.5,2.61-16,2.61-16a42.82,42.82,0,0,0,9.78-20.12c.11.85.89,7,1.19,10.19,20.81-15,19.64-35.82,19.64-35.82,10.88,3.9,14.59,7.93,16.77,9.78,0,0-6.44-14.08-18-20.06-14.22-7.33-45.43,3.6-52.14,25.06C141.51,254.21,168.92,278,168.92,278Z" style="fill:#263238"></path><path d="M198.06,240.15a46.66,46.66,0,0,1-9.67,9.82s-.07,0,0-.05a39.52,39.52,0,0,0,12-18,37.4,37.4,0,0,0,1.68-9.2,26,26,0,0,0-1.07-10.13c-.09-.23.28-.37.36-.14,1.23,3.28,2.32,6.31,2.43,9.85a27.82,27.82,0,0,1-1.5,9.95,32,32,0,0,1-4.17,7.93" style="fill:#263238"></path><path d="M170.72,269.84s-12-8.64-16.16-4S162.15,285,169,285.13a6.56,6.56,0,0,0,7.14-6.22Z" style="fill:#eb9481"></path><path d="M158,269.92c-.1,0-.07.17,0,.17,4.87.25,8.49,3.42,11.49,7-1.82-1.14-3.84-1.41-5.43.84-.09.12.08.26.19.19A4,4,0,0,1,169,278a19,19,0,0,1,3.19,2.69c.33.31,1-.13.65-.52l-.07-.09C171,274.57,164.08,268.43,158,269.92Z" style="fill:#263238"></path><path d="M174.81,288.34a18,18,0,0,1,.61,5.42c-.16,2.5-1.22,3.26-2.08,3.46a2.35,2.35,0,0,1-2-.38c-2.84-1.95-4-10.25-4.27-12.12.57.17,1.1.29,1.59.39.45,3.1,1.65,9.18,3.53,10.5a1,1,0,0,0,.79.15c.73-.18,1.09-1.64.9-3.8a22.63,22.63,0,0,0-1.8-7c-.67-1.61-1.4-2.68-1.81-2.7a.75.75,0,0,1-.91-.56.78.78,0,0,1,.55-.91c1.38-.34,2.63,1.44,3.55,3.58A22.65,22.65,0,0,1,174.81,288.34Z" style="fill:#FFC727"></path><path d="M281,324c7.07-4.9,15.15-16.7,21.29-18.48a7.33,7.33,0,0,1,8.3,2.76s2.09-6.76,7.93-7.45c3-.36,6.21,4.13,6.21,4.13s1.92-5.35,7.15-5.64c4.17-.24,6.76,4.29,6.76,4.29s4.22-4.27,8.55-3.15c8.76,2.27,14.56,37.62,2.43,45.22-5.66,3.54-6.6-5.17-6.6-5.17s-1.67,12.85-8.93,14.23-7.8-10-7.8-10-1.72,12.45-9.39,13.12c-8,.7-6.58-10.79-6.58-10.79s-4,8.73-10,7.9c-9.89-1.37-.06-21.94-3.18-29.41Z" style="fill:#eb9481"></path><path d="M339.15,304.28a.1.1,0,0,1,.18-.06c4.74,11.16,6.52,24.88,3.8,36.78-.09.39-.77.41-.75,0C342.85,328.17,342.24,316.77,339.15,304.28Z" style="fill:#263238"></path><path d="M324.78,304.79c0-.13.19-.19.25-.05,4.82,11.53,6.41,27,1.65,40.38-.17.45-.77.7-.62.16C328.55,336.17,327.62,316,324.78,304.79Z" style="fill:#263238"></path><path d="M309.67,347.94c4.06-13,3.57-25.93,1.14-39.17,0-.17.22-.2.28-.06,3,6.15,3.62,14.75,3.57,21.49a35.72,35.72,0,0,1-4.54,17.88C310,348.3,309.58,348.22,309.67,347.94Z" style="fill:#263238"></path></g></svg>
